<svg width="380" height="381" xmlns="http://www.w3.org/2000/svg" xmlns:xlink="http://www.w3.org/1999/xlink" overflow="hidden"><defs><clipPath id="clip0"><rect x="467" y="47" width="380" height="381"/></clipPath></defs><g clip-path="url(#clip0)" transform="translate(-467 -47)"><path d="M467 237C467 132.066 552.066 47 657 47 761.934 47 847 132.066 847 237 847 341.934 761.934 427 657 427 552.066 427 467 341.934 467 237Z" fill="#D9D9D9" fill-rule="evenodd"/><path d="M602.239 138.044C603.964 130.224 611.701 125.283 619.521 127.008L619.521 127.008C627.341 128.733 632.282 136.47 630.557 144.29L588.706 334.025C586.981 341.844 579.243 346.785 571.424 345.06L571.424 345.06C563.604 343.335 558.663 335.598 560.388 327.778Z" fill-rule="evenodd"/><path d="M735.5 321C743.508 321 750 327.492 750 335.5L750 335.5C750 343.508 743.508 350 735.5 350L646.5 350C638.492 350 632 343.508 632 335.5L632 335.5C632 327.492 638.492 321 646.5 321Z" fill-rule="evenodd"/><path d="M647.303 137.159 649.613 134.356C654.066 128.949 662.059 128.176 667.466 132.629L746.756 197.933C752.937 203.024 753.821 212.162 748.73 218.343L748.73 218.343C743.639 224.524 734.501 225.408 728.32 220.317L649.03 155.012C643.623 150.559 642.85 142.566 647.303 137.159Z" fill-rule="evenodd"/><path d="M745.27 203.987 747.347 206.967C751.353 212.713 749.941 220.618 744.195 224.624L659.924 283.361C653.355 287.94 644.318 286.326 639.739 279.757L639.739 279.757C635.16 273.188 636.773 264.15 643.343 259.571L727.613 200.834C733.359 196.829 741.265 198.24 745.27 203.987Z" fill-rule="evenodd"/></g></svg>