<svg width="326" height="132" xmlns="http://www.w3.org/2000/svg" xmlns:xlink="http://www.w3.org/1999/xlink" overflow="hidden"><defs><clipPath id="clip0"><rect x="771" y="191" width="326" height="132"/></clipPath></defs><g clip-path="url(#clip0)" transform="translate(-771 -191)"><text font-family="Inter Medium,Inter Medium_MSFontService,sans-serif" font-weight="700" font-size="43" transform="translate(918.346 273)">Ricardo</text><path d="M773.5 257.5C773.5 222.154 801.93 193.5 837 193.5 872.07 193.5 900.5 222.154 900.5 257.5 900.5 292.846 872.07 321.5 837 321.5 801.93 321.5 773.5 292.846 773.5 257.5Z" stroke="#FFFFFF" stroke-width="3" stroke-miterlimit="8" fill="#D9D9D9" fill-rule="evenodd"/><path d="M824.081 230.465C824.514 228.501 826.458 227.26 828.422 227.693L828.422 227.693C830.386 228.126 831.627 230.07 831.194 232.034L820.682 279.691C820.249 281.655 818.305 282.896 816.341 282.463L816.341 282.463C814.377 282.03 813.136 280.086 813.569 278.122Z" fill-rule="evenodd"/><path d="M857 276C859.209 276 861 277.791 861 280L861 280C861 282.209 859.209 284 857 284L835 284C832.791 284 831 282.209 831 280L831 280C831 277.791 832.791 276 835 276Z" fill-rule="evenodd"/><path d="M835.4 230.243 835.98 229.539C837.099 228.181 839.107 227.986 840.465 229.105L860.38 245.508C861.933 246.787 862.155 249.082 860.876 250.634L860.876 250.634C859.598 252.187 857.302 252.409 855.75 251.13L835.834 234.727C834.476 233.609 834.282 231.601 835.4 230.243Z" fill-rule="evenodd"/><path d="M860.007 247.028 860.529 247.777C861.535 249.22 861.18 251.206 859.737 252.212L838.57 266.965C836.92 268.116 834.65 267.71 833.5 266.06L833.5 266.06C832.35 264.41 832.755 262.14 834.405 260.99L855.572 246.237C857.016 245.231 859.001 245.585 860.007 247.028Z" fill-rule="evenodd"/></g></svg>